<svg width="848.087" height="945.868" xmlns="http://www.w3.org/2000/svg">
 <defs>
  <style>.a,.c{fill:none;}.a{stroke:#5454ff;}.b{stroke:none;}</style>
 </defs>
 <g>
  <title>background</title>
  <rect fill="none" id="canvas_background" height="947.868" width="850.087" y="-1" x="-1"/>
 </g>
 <g>
  <title>Layer 1</title>
  <g id="svg_1" transform="matrix(0.966,0.259,-0.259,0.966,-91.646,-895.324) ">
   <g id="svg_2" class="a">
    <circle id="svg_3" r="408.5" cy="1138.21901" cx="854.11928" class="b"/>
    <circle id="svg_4" r="408" cy="1138.21901" cx="854.11928" class="c"/>
   </g>
   <g id="svg_5" class="a">
    <circle id="svg_6" r="408.5" cy="1148.21901" cx="854.11928" class="b"/>
    <circle id="svg_7" r="408" cy="1148.21901" cx="854.11928" class="c"/>
   </g>
   <g id="svg_8" class="a">
    <circle id="svg_9" r="408.5" cy="1158.21901" cx="854.11928" class="b"/>
    <circle id="svg_10" r="408" cy="1158.21901" cx="854.11928" class="c"/>
   </g>
   <g id="svg_11" class="a">
    <circle id="svg_12" r="408.5" cy="1168.21901" cx="854.11928" class="b"/>
    <circle id="svg_13" r="408" cy="1168.21901" cx="854.11928" class="c"/>
   </g>
   <g id="svg_14" class="a">
    <circle id="svg_15" r="408.5" cy="1178.21901" cx="854.11928" class="b"/>
    <circle id="svg_16" r="408" cy="1178.21901" cx="854.11928" class="c"/>
   </g>
   <g id="svg_17" class="a">
    <circle id="svg_18" r="408.5" cy="1188.21901" cx="854.11928" class="b"/>
    <circle id="svg_19" r="408" cy="1188.21901" cx="854.11928" class="c"/>
   </g>
   <g id="svg_20" class="a">
    <circle id="svg_21" r="408.5" cy="1198.21901" cx="854.11928" class="b"/>
    <circle id="svg_22" r="408" cy="1198.21901" cx="854.11928" class="c"/>
   </g>
   <g id="svg_23" class="a">
    <circle id="svg_24" r="408.5" cy="1208.21901" cx="854.11928" class="b"/>
    <circle id="svg_25" r="408" cy="1208.21901" cx="854.11928" class="c"/>
   </g>
   <g id="svg_26" class="a">
    <circle id="svg_27" r="408.5" cy="1218.21901" cx="854.11928" class="b"/>
    <circle id="svg_28" r="408" cy="1218.21901" cx="854.11928" class="c"/>
   </g>
   <g id="svg_29" class="a">
    <circle id="svg_30" r="408.5" cy="1228.21901" cx="854.11928" class="b"/>
    <circle id="svg_31" r="408" cy="1228.21901" cx="854.11928" class="c"/>
   </g>
   <g id="svg_32" class="a">
    <circle id="svg_33" r="408.5" cy="1238.21901" cx="854.11928" class="b"/>
    <circle id="svg_34" r="408" cy="1238.21901" cx="854.11928" class="c"/>
   </g>
   <g id="svg_35" class="a">
    <circle id="svg_36" r="408.5" cy="1248.21901" cx="854.11928" class="b"/>
    <circle id="svg_37" r="408" cy="1248.21901" cx="854.11928" class="c"/>
   </g>
  </g>
 </g>
</svg>