<svg xmlns="http://www.w3.org/2000/svg" xmlns:xlink="http://www.w3.org/1999/xlink" width="350" height="350" viewBox="0 0 350 350"><defs><style>.a{fill:rgba(255,255,255,0);}.b{fill:url(#a);}.c{fill:#282865;}.d{fill:#060624;}.e{fill:#b9ecc2;}.f{fill:#5454ff;}.g{fill:#f1ad38;}.h{fill:#cc8100;}.i{fill:#ffdc9f;}.j{fill:url(#b);}.k{fill:#e1e1e1;}.l{fill:#f1f1f1;}.m{fill:#fff;}.n{fill:#e5e2e2;}.o{fill:#bbb;}.p{fill:#cbcbcb;}.q{fill:#2b2bc4;}.r{fill:#c2c2c2;}</style><linearGradient id="a" x1="0.5" x2="0.5" y2="1" gradientUnits="objectBoundingBox"><stop offset="0" stop-color="#ddd"/><stop offset="1" stop-color="#fff" stop-opacity="0"/></linearGradient><linearGradient id="b" x1="0.5" x2="0.5" y2="1" gradientUnits="objectBoundingBox"><stop offset="0" stop-color="#bbb"/><stop offset="1" stop-color="#fff" stop-opacity="0"/></linearGradient></defs><g transform="translate(-3574 -2580)"><rect class="a" width="350" height="350" transform="translate(3574 2580)"/><g transform="translate(36 -4)"><g transform="translate(484.026 304)"><rect class="b" width="85.97" height="200" transform="translate(3192.974 2374)"/><g transform="translate(3178.974 2284)"><path class="c" d="M146.492,315.5H78.444a8.963,8.963,0,0,1-8.963-8.963V279.421a8.963,8.963,0,0,1,8.963-8.963h68.047a8.963,8.963,0,0,1,8.963,8.963v27.114a8.962,8.962,0,0,1-8.963,8.963Zm0,0" transform="translate(-55.455 -215.861)"/><path class="d" d="M146.492,276.271H78.444a8.963,8.963,0,0,1-8.963-8.963V240.194a8.963,8.963,0,0,1,8.963-8.963h68.047a8.963,8.963,0,0,1,8.963,8.963v27.115a8.962,8.962,0,0,1-8.963,8.963Zm0,0" transform="translate(-55.455 -184.553)"/><path class="c" d="M146.492,237.041H78.444a8.963,8.963,0,0,1-8.963-8.963V200.964A8.963,8.963,0,0,1,78.444,192h68.047a8.963,8.963,0,0,1,8.963,8.963v27.114a8.963,8.963,0,0,1-8.963,8.963Zm0,0" transform="translate(-55.455 -153.242)"/><path class="d" d="M141.569,152.77H78.444a8.963,8.963,0,0,0-8.963,8.963v27.114a8.963,8.963,0,0,0,8.963,8.963h68.047a8.963,8.963,0,0,0,8.963-8.963V166.539c-2.253-1.27-11.721-1.971-13.885-13.77Zm0,0" transform="translate(-55.455 -121.93)"/><g transform="translate(14.026 30.839)"><path class="e" d="M84.082,152.77H78.444a8.963,8.963,0,0,0-8.963,8.963v5.638a14.6,14.6,0,0,0,14.6-14.6Zm0,0" transform="translate(-69.481 -152.77)"/><path class="f" d="M69.48,303.559V309.2a8.963,8.963,0,0,0,8.963,8.963h5.637A14.6,14.6,0,0,0,69.48,303.559Zm0,0" transform="translate(-69.48 -273.12)"/><path class="f" d="M437.644,167.371v-5.638a8.964,8.964,0,0,0-8.963-8.963h-5.638A14.6,14.6,0,0,0,437.644,167.371Zm0,0" transform="translate(-351.67 -152.77)"/><path class="f" d="M437.644,309.2v-5.638a14.6,14.6,0,0,0-14.6,14.6h5.638A8.964,8.964,0,0,0,437.644,309.2Zm0,0" transform="translate(-351.67 -273.119)"/><path class="f" d="M218.932,206.873c0-8.027-9.625-14.533-21.5-14.533s-21.5,6.506-21.5,14.533,9.624,14.533,21.5,14.533S218.932,214.9,218.932,206.873Zm0,0" transform="translate(-154.448 -184.352)"/></g><path class="g" d="M248.182,210.583h-9.018a5.293,5.293,0,0,1-5.293-5.294V139.641a5.293,5.293,0,0,1,5.293-5.294h9.018a5.293,5.293,0,0,1,5.294,5.294V205.29A5.294,5.294,0,0,1,248.182,210.583Zm0,0" transform="translate(-186.66 -107.227)"/><path class="h" d="M233.871,375.891v22.183a5.293,5.293,0,0,0,5.293,5.293h9.018a5.293,5.293,0,0,0,5.293-5.293V375.891Zm0,0" transform="translate(-186.66 -300.011)"/><path class="i" d="M21.973,73.322l1.654,3.023a17.977,17.977,0,0,0,7.146,7.146L33.8,85.145a4.462,4.462,0,0,1,0,7.829l-3.023,1.654a17.972,17.972,0,0,0-7.146,7.146L21.973,104.8a4.461,4.461,0,0,1-7.829,0l-1.654-3.023a17.977,17.977,0,0,0-7.146-7.146L2.321,92.974a4.462,4.462,0,0,1,0-7.829l3.024-1.654a17.977,17.977,0,0,0,7.146-7.146l1.654-3.023a4.461,4.461,0,0,1,7.829,0Zm0,0" transform="translate(0 -56.668)"/><path class="i" d="M348.26,1.5l1.067,1.952a11.6,11.6,0,0,0,4.611,4.611l1.952,1.068a2.879,2.879,0,0,1,0,5.052l-1.952,1.067a11.6,11.6,0,0,0-4.611,4.612L348.26,21.81a2.88,2.88,0,0,1-5.053,0L342.14,19.86a11.6,11.6,0,0,0-4.612-4.612l-1.951-1.067a2.879,2.879,0,0,1,0-5.052l1.951-1.068a11.6,11.6,0,0,0,4.612-4.611L343.207,1.5a2.88,2.88,0,0,1,5.053,0Zm0,0" transform="translate(-266.639)"/></g></g><path class="j" d="M3507.151,2426s75.68,42.476,74.3,125.346h47.495S3632.8,2426,3573.419,2426Z" transform="translate(104 316)"/><path class="b" d="M3640.729,2426s-82.965,45.68-81.456,134.8h-52.067s-4.219-134.8,60.875-134.8Z" transform="translate(174.461 369)"/><g transform="translate(481 276)"><g transform="translate(444.974 994)"><path class="k" d="M146.492,315.5H78.444a8.963,8.963,0,0,1-8.963-8.963V279.421a8.963,8.963,0,0,1,8.963-8.963h68.047a8.963,8.963,0,0,1,8.963,8.963v27.114a8.962,8.962,0,0,1-8.963,8.963Zm0,0" transform="translate(2614.545 1160.139)"/><path class="l" d="M146.492,276.271H78.444a8.963,8.963,0,0,1-8.963-8.963V240.194a8.963,8.963,0,0,1,8.963-8.963h68.047a8.963,8.963,0,0,1,8.963,8.963v27.115a8.962,8.962,0,0,1-8.963,8.963Zm0,0" transform="translate(2614.545 1191.447)"/><path class="m" d="M146.492,237.041H78.444a8.963,8.963,0,0,1-8.963-8.963V200.964A8.963,8.963,0,0,1,78.444,192h68.047a8.963,8.963,0,0,1,8.963,8.963v27.114a8.963,8.963,0,0,1-8.963,8.963Zm0,0" transform="translate(2614.545 1222.758)"/><path class="n" d="M141.569,152.77H78.444a8.963,8.963,0,0,0-8.963,8.963v27.114a8.963,8.963,0,0,0,8.963,8.963h68.047a8.963,8.963,0,0,0,8.963-8.963V166.539c-2.253-1.27-11.721-1.971-13.885-13.77Zm0,0" transform="translate(2614.545 1254.07)"/><g transform="translate(2684.026 1406.839)"><path class="o" d="M84.082,152.77H78.444a8.963,8.963,0,0,0-8.963,8.963v5.638a14.6,14.6,0,0,0,14.6-14.6Zm0,0" transform="translate(-69.481 -152.77)"/><path class="p" d="M69.48,303.559V309.2a8.963,8.963,0,0,0,8.963,8.963h5.637A14.6,14.6,0,0,0,69.48,303.559Zm0,0" transform="translate(-69.48 -273.12)"/><path class="p" d="M437.644,167.371v-5.638a8.964,8.964,0,0,0-8.963-8.963h-5.638A14.6,14.6,0,0,0,437.644,167.371Zm0,0" transform="translate(-351.67 -152.77)"/><path class="p" d="M437.644,309.2v-5.638a14.6,14.6,0,0,0-14.6,14.6h5.638A8.964,8.964,0,0,0,437.644,309.2Zm0,0" transform="translate(-351.67 -273.119)"/><path class="p" d="M218.932,206.873c0-8.027-9.625-14.533-21.5-14.533s-21.5,6.506-21.5,14.533,9.624,14.533,21.5,14.533S218.932,214.9,218.932,206.873Zm0,0" transform="translate(-154.448 -184.352)"/></g><path class="f" d="M248.182,210.583h-9.018a5.293,5.293,0,0,1-5.293-5.294V139.641a5.293,5.293,0,0,1,5.293-5.294h9.018a5.293,5.293,0,0,1,5.294,5.294V205.29A5.294,5.294,0,0,1,248.182,210.583Zm0,0" transform="translate(2483.34 1268.773)"/><path class="q" d="M233.871,375.891v22.183a5.293,5.293,0,0,0,5.293,5.293h9.018a5.293,5.293,0,0,0,5.293-5.293V375.891Zm0,0" transform="translate(2483.34 1075.989)"/></g><g transform="translate(3234.974 2426)"><path class="c" d="M146.492,315.5H78.444a8.963,8.963,0,0,1-8.963-8.963V279.421a8.963,8.963,0,0,1,8.963-8.963h68.047a8.963,8.963,0,0,1,8.963,8.963v27.114a8.962,8.962,0,0,1-8.963,8.963Zm0,0" transform="translate(-55.455 -215.861)"/><path class="d" d="M146.492,276.271H78.444a8.963,8.963,0,0,1-8.963-8.963V240.194a8.963,8.963,0,0,1,8.963-8.963h68.047a8.963,8.963,0,0,1,8.963,8.963v27.115a8.962,8.962,0,0,1-8.963,8.963Zm0,0" transform="translate(-55.455 -184.553)"/><path class="c" d="M146.492,237.041H78.444a8.963,8.963,0,0,1-8.963-8.963V200.964A8.963,8.963,0,0,1,78.444,192h68.047a8.963,8.963,0,0,1,8.963,8.963v27.114a8.963,8.963,0,0,1-8.963,8.963Zm0,0" transform="translate(-55.455 -153.242)"/><path class="d" d="M141.569,152.77H78.444a8.963,8.963,0,0,0-8.963,8.963v27.114a8.963,8.963,0,0,0,8.963,8.963h68.047a8.963,8.963,0,0,0,8.963-8.963V166.539c-2.253-1.27-11.721-1.971-13.885-13.77Zm0,0" transform="translate(-55.455 -121.93)"/><g transform="translate(14.026 30.839)"><path class="f" d="M84.082,152.77H78.444a8.963,8.963,0,0,0-8.963,8.963v5.638a14.6,14.6,0,0,0,14.6-14.6Zm0,0" transform="translate(-69.481 -152.77)"/><path class="f" d="M69.48,303.559V309.2a8.963,8.963,0,0,0,8.963,8.963h5.637A14.6,14.6,0,0,0,69.48,303.559Zm0,0" transform="translate(-69.48 -273.12)"/><path class="f" d="M437.644,167.371v-5.638a8.964,8.964,0,0,0-8.963-8.963h-5.638A14.6,14.6,0,0,0,437.644,167.371Zm0,0" transform="translate(-351.67 -152.77)"/><path class="f" d="M437.644,309.2v-5.638a14.6,14.6,0,0,0-14.6,14.6h5.638A8.964,8.964,0,0,0,437.644,309.2Zm0,0" transform="translate(-351.67 -273.119)"/><path class="f" d="M218.932,206.873c0-8.027-9.625-14.533-21.5-14.533s-21.5,6.506-21.5,14.533,9.624,14.533,21.5,14.533S218.932,214.9,218.932,206.873Zm0,0" transform="translate(-154.448 -184.352)"/></g><path class="l" d="M248.182,210.583h-9.018a5.293,5.293,0,0,1-5.293-5.294V139.641a5.293,5.293,0,0,1,5.293-5.294h9.018a5.293,5.293,0,0,1,5.294,5.294V205.29A5.294,5.294,0,0,1,248.182,210.583Zm0,0" transform="translate(-186.66 -107.227)"/><path class="r" d="M233.871,375.891v22.183a5.293,5.293,0,0,0,5.293,5.293h9.018a5.293,5.293,0,0,0,5.293-5.293V375.891Zm0,0" transform="translate(-186.66 -300.011)"/></g></g></g></g></svg>