<svg xmlns="http://www.w3.org/2000/svg" width="20" height="16.172" viewBox="0 0 20 16.172"><defs><style>.a{opacity:0.5;}.b{fill:#5454ff;}</style></defs><g class="a" transform="translate(0 -49.004)"><path class="b" d="M18.931,55.881a17.59,17.59,0,0,0-1.708-4.174A10.529,10.529,0,0,0,12.845,49l-.4,1.1A12.328,12.328,0,0,1,15.5,51.711,20.118,20.118,0,0,0,10,50.9a20.118,20.118,0,0,0-5.5.816A12.328,12.328,0,0,1,7.559,50.1l-.4-1.1a10.529,10.529,0,0,0-4.377,2.7,17.587,17.587,0,0,0-1.708,4.174A38.642,38.642,0,0,0,0,62.384c.068.107,1.641,2.791,5.926,2.791L7.012,63.6a11.55,11.55,0,0,1-3.439-1.551l.649-.976a10.447,10.447,0,0,0,11.556,0l.649.976A11.55,11.55,0,0,1,12.988,63.6l1.086,1.573c4.285,0,5.857-2.684,5.926-2.791A38.644,38.644,0,0,0,18.931,55.881ZM7.291,58.947H6.119V56.994H7.291Zm6.59,0H12.709V56.994h1.172Z" transform="translate(0 0)"/></g></svg>