<svg xmlns="http://www.w3.org/2000/svg" width="22" height="17.417" viewBox="0 0 22 17.417"><defs><style>.a{fill:#5454ff;opacity:0.5;}</style></defs><path class="a" d="M20.245,4.547,22,2.868V2.5H15.919L11.585,13.287,6.654,2.5H.278v.368L2.328,5.336a.86.86,0,0,1,.278.718v9.7a1.106,1.106,0,0,1-.3.962L0,19.517v.363H6.55v-.368L4.24,16.718a1.141,1.141,0,0,1-.318-.962V7.364L9.671,19.885h.668L15.283,7.364v9.974c0,.263,0,.317-.172.49l-1.778,1.721v.369H21.96v-.368l-1.714-1.678a.51.51,0,0,1-.2-.49V5.036a.508.508,0,0,1,.2-.49Z" transform="translate(0 -2.5)"/></svg>