<svg xmlns="http://www.w3.org/2000/svg" width="1029.087" height="1106.868" viewBox="0 0 1029.087 1106.868"><defs><style>.a,.c{fill:none;}.a{stroke:#5454ff;}.b{stroke:none;}</style></defs><g transform="matrix(0.966, 0.259, -0.259, 0.966, -91.646, -895.324)"><g class="a" transform="translate(552 779)"><circle class="b" cx="408.5" cy="408.5" r="408.5"/><circle class="c" cx="408.5" cy="408.5" r="408"/></g><g class="a" transform="translate(552 789)"><circle class="b" cx="408.5" cy="408.5" r="408.5"/><circle class="c" cx="408.5" cy="408.5" r="408"/></g><g class="a" transform="translate(552 799)"><circle class="b" cx="408.5" cy="408.5" r="408.5"/><circle class="c" cx="408.5" cy="408.5" r="408"/></g><g class="a" transform="translate(552 809)"><circle class="b" cx="408.5" cy="408.5" r="408.5"/><circle class="c" cx="408.5" cy="408.5" r="408"/></g><g class="a" transform="translate(552 819)"><circle class="b" cx="408.5" cy="408.5" r="408.5"/><circle class="c" cx="408.5" cy="408.5" r="408"/></g><g class="a" transform="translate(552 829)"><circle class="b" cx="408.5" cy="408.5" r="408.5"/><circle class="c" cx="408.5" cy="408.5" r="408"/></g><g class="a" transform="translate(552 839)"><circle class="b" cx="408.5" cy="408.5" r="408.5"/><circle class="c" cx="408.5" cy="408.5" r="408"/></g><g class="a" transform="translate(552 849)"><circle class="b" cx="408.5" cy="408.5" r="408.5"/><circle class="c" cx="408.5" cy="408.5" r="408"/></g><g class="a" transform="translate(552 859)"><circle class="b" cx="408.5" cy="408.5" r="408.5"/><circle class="c" cx="408.5" cy="408.5" r="408"/></g><g class="a" transform="translate(552 869)"><circle class="b" cx="408.5" cy="408.5" r="408.5"/><circle class="c" cx="408.5" cy="408.5" r="408"/></g><g class="a" transform="translate(552 879)"><circle class="b" cx="408.5" cy="408.5" r="408.5"/><circle class="c" cx="408.5" cy="408.5" r="408"/></g><g class="a" transform="translate(552 889)"><circle class="b" cx="408.5" cy="408.5" r="408.5"/><circle class="c" cx="408.5" cy="408.5" r="408"/></g></g></svg>