<svg id="timeline_black_24dp" xmlns="http://www.w3.org/2000/svg" width="24" height="24" viewBox="0 0 24 24">
  <g id="Group_11040" data-name="Group 11040">
    <rect id="Rectangle_337" data-name="Rectangle 337" width="24" height="24" fill="none"/>
  </g>
  <g id="Group_11043" data-name="Group 11043">
    <g id="Group_11042" data-name="Group 11042">
      <g id="Group_11041" data-name="Group 11041">
        <path id="Path_10083" data-name="Path 10083" d="M23,8a2.006,2.006,0,0,1-2,2,1.7,1.7,0,0,1-.51-.07l-3.56,3.55A1.766,1.766,0,0,1,17,14a2,2,0,0,1-4,0,1.766,1.766,0,0,1,.07-.52l-2.55-2.55a1.966,1.966,0,0,1-1.04,0L4.93,15.49A1.7,1.7,0,0,1,5,16a2,2,0,1,1-2-2,1.7,1.7,0,0,1,.51.07L8.07,9.52A1.766,1.766,0,0,1,8,9a2,2,0,0,1,4,0,1.766,1.766,0,0,1-.07.52l2.55,2.55a1.966,1.966,0,0,1,1.04,0l3.55-3.56A1.7,1.7,0,0,1,19,8a2,2,0,0,1,4,0Z" fill="#5454ff"/>
      </g>
    </g>
  </g>
</svg>
