<svg xmlns="http://www.w3.org/2000/svg" width="20" height="11.529" viewBox="0 0 20 11.529"><defs><style>.a{fill:#5454ff;}</style></defs><path class="a" d="M14.835,7.385a.9.9,0,0,1,1.535-.636l3.8,3.8a.845.845,0,0,1,0,1.2l-3.8,3.8A.9.9,0,1,1,15.1,14.28l3.129-3.129L15.1,8.021A.9.9,0,0,1,14.835,7.385ZM9.746,8.606V7.257a.851.851,0,0,1,1.45-.6l3.893,3.893a.845.845,0,0,1,0,1.2L11.2,15.637a.851.851,0,0,1-1.45-.6V13.61c-4.24,0-7.209,1.357-9.329,4.325C1.266,13.694,3.81,9.454,9.746,8.606Z" transform="translate(-0.417 -6.406)"/></svg>