<svg xmlns="http://www.w3.org/2000/svg" width="20" height="16.25" viewBox="0 0 20 16.25"><defs><style>.a{opacity:0.5;}.b{fill:#5454ff;}</style></defs><g class="a" transform="translate(0 -48)"><g transform="translate(0 48)"><path class="b" d="M20,49.924a8.549,8.549,0,0,1-2.363.647,4.077,4.077,0,0,0,1.8-2.266,8.194,8.194,0,0,1-2.6.993,4.1,4.1,0,0,0-7.092,2.8,4.222,4.222,0,0,0,.1.935,11.606,11.606,0,0,1-8.451-4.289,4.1,4.1,0,0,0,1.26,5.48A4.049,4.049,0,0,1,.8,53.722v.045A4.119,4.119,0,0,0,4.085,57.8a4.092,4.092,0,0,1-1.075.135,3.625,3.625,0,0,1-.776-.07,4.139,4.139,0,0,0,3.831,2.856A8.239,8.239,0,0,1,.981,62.466,7.68,7.68,0,0,1,0,62.41a11.543,11.543,0,0,0,6.29,1.84A11.59,11.59,0,0,0,17.96,52.583c0-.181-.006-.356-.015-.53A8.18,8.18,0,0,0,20,49.924Z" transform="translate(0 -48)"/></g></g></svg>